<svg xmlns="http://www.w3.org/2000/svg" viewBox="0 0 48 48" id="Black"><g transform="translate(0 -1004.362)" fill="#000000" class="color000000 svgShape"><circle cx="24" cy="1028.362" r="24" fill="#424242" fill-rule="evenodd" class="color424242 svgShape"></circle><path fill="#242424" style="line-height:normal;text-indent:0;text-align:start;text-decoration-line:none;text-decoration-style:solid;text-decoration-color:#000;text-transform:none;block-progression:tb;isolation:auto;mix-blend-mode:normal" d="M24.45 47.984a24 24 0 0 0 1.247-.045 24 24 0 0 0 2.383-.289 24 24 0 0 0 2.34-.525 24 24 0 0 0 2.277-.756 24 24 0 0 0 2.19-.98 24 24 0 0 0 2.08-1.194 24 24 0 0 0 1.951-1.394 24 24 0 0 0 1.803-1.584 24 24 0 0 0 1.634-1.756 24 24 0 0 0 1.454-1.91 24 24 0 0 0 1.254-2.045 24 24 0 0 0 1.042-2.16 24 24 0 0 0 .823-2.254 24 24 0 0 0 .593-2.324 24 24 0 0 0 .36-2.372A24 24 0 0 0 48 24a24 24 0 0 0-.02-.566L37.023 12.477a1.645 1.645 0 0 0-.336-.252 1.591 1.591 0 0 0-.48-.192 1.596 1.596 0 0 0-.324-.033h-3.416l-2-2h-3.002l.039.537.103 1.463h-5.07l-2-2h-3.002l-.033.465-.11 1.535h-5.275c-.887 0-1.617.732-1.617 1.62v16.763c0 .444.183.847.477 1.14l4.687 4.69-.16 2.252-.04.535 8.985 8.984z" color="#000" font-family="sans-serif" font-weight="400" transform="translate(0 1004.362)" class="color1f212a svgShape"></path><path fill="#ffffff" style="line-height:normal;text-indent:0;text-align:start;text-decoration-line:none;text-decoration-style:solid;text-decoration-color:#000;text-transform:none;block-progression:tb;isolation:auto;mix-blend-mode:normal" d="m10.035 1022.862-.033.465-.11 1.535H4.618c-.887 0-1.617.732-1.617 1.62v16.763c0 .888.73 1.617 1.617 1.617h3.848l-.461 6.465-.04.535h3.003l.5-7H15v7h3v-7h3.535l.5 7h3.002l-.039-.535-.46-6.465h3.845c.887 0 1.617-.73 1.617-1.617v-16.764c0-.887-.73-1.619-1.617-1.619h-5.274l-.109-1.535-.033-.465h-3.002l.039.537.103 1.463h-7.212l.142-2h-3.002zm.93 1h.998l-.07 1h-.998l.07-1zm10.074 0h.998l.07 1h-.998l-.07-1zm-16.422 2h23.766c.35 0 .617.268.617.62v16.763c0 .35-.266.617-.617.617H25.5v-2h-18v2H4.617a.605.605 0 0 1-.617-.617v-16.764c0-.35.266-.619.617-.619zm3.883 17h16v1h-16v-1zm.967 2h.998l-.428 6H9.04l.428-6zm6.533 0h1v6h-1v-6zm6.537 0h.998l.428 6h-.998l-.428-6z" color="#000" font-family="sans-serif" font-weight="400" overflow="visible" transform="translate(7.5 -8.5)" class="colorffffff svgShape"></path></g></svg>