<svg xmlns="http://www.w3.org/2000/svg" width="28" height="28" id="file"><circle cx="14" cy="14" r="14" fill="#50b748" fill-rule="evenodd"></circle><path fill="#fff" d="M9.999 6A2.007 2.007 0 0 0 8 8.01V18.03c0 1.108.896 2.01 1.999 2.01h4.388C14.96 21.197 16.135 22 17.505 22a3.506 3.506 0 0 0 1.478-6.68v-4.787c0-.023-.01-.043-.013-.065a.49.49 0 0 0-.133-.29l-3.994-4.011c-.015-.015-.036-.016-.052-.028A.495.495 0 0 0 14.447 6H10Zm4.99 1.747 2.286 2.284h-1.299a.99.99 0 0 1-.987-.99V7.746zm2.516 8.235a2.504 2.504 0 0 1 2.497 2.508 2.504 2.504 0 0 1-2.497 2.507 2.504 2.504 0 0 1-2.496-2.507 2.504 2.504 0 0 1 2.496-2.508zm-.025.805-1.814 1.76.69.722.63-.609v1.367h.999V18.64l.67.634.687-.73-1.862-1.756z"></path></svg>