<svg xmlns="http://www.w3.org/2000/svg" width="28" height="28" id="file"><circle cx="14" cy="14" r="14" fill="#239fdb" fill-rule="evenodd"></circle><path fill="#fff" d="M10.002 7.023C9.449 7.023 9 7.473 9 8.025v9.995c0 .553.449 1.003 1.002 1.003h4.072a3.519 3.519 0 0 1-.054-.546 3.505 3.505 0 0 1 3.5-3.5c.165 0 .321.025.48.048v-3.98h-2.012A1.99 1.99 0 0 1 14 9.057V7.023h-3.998zM15 7.768v1.289a.99.99 0 0 0 .988.988h1.301L15 7.768Zm2.52 8.209a2.503 2.503 0 0 0-2.5 2.5c0 1.379 1.122 2.5 2.5 2.5s2.5-1.121 2.5-2.5c0-1.38-1.122-2.5-2.5-2.5zm-.026.787 1.863 1.75-.685.728-.674-.63v1.384h-1v-1.363l-.629.605-.693-.72 1.818-1.754z"></path></svg>