<svg xmlns="http://www.w3.org/2000/svg" xmlns:xlink="http://www.w3.org/1999/xlink" viewBox="0 0 64 64" id="Home"><defs><linearGradient id="b" x1="949.87" x2="974.39" y1="518.014" y2="544.657" gradientTransform="translate(131.34 399.4) scale(1.02524)" gradientUnits="userSpaceOnUse" xlink:href="#a"></linearGradient><linearGradient id="a"><stop offset="0" stop-color="#f72424" class="stopColor24f7bc svgShape"></stop><stop offset="1" stop-color="#fc2424" class="stopColor24c4fc svgShape"></stop></linearGradient></defs><g transform="translate(-1100.908 -928.08)" fill="#ff2a2a" class="color000000 svgShape"><rect width="32" height="32" x="1100.908" y="928.079" fill="url(#b)" rx="6.763" ry="6.763"></rect><path style="text-indent:0;text-align:start;line-height:normal;text-transform:none;block-progression:tb;marker:none;-inkscape-font-specification:Sans" fill="#ffffff" d="m1116.908 935.48-.365.332-6.276 5.511a.538.538 0 0 0-.199.166l-2.025 1.76c-.417.383.313 1.18.73.797l1.229-1.062V952.678h4.25v-7.437H1119.564v7.438h4.25v-9.695l1.229 1.062c.417.383 1.148-.414.73-.797l-2.158-1.86-.033-.032-6.308-5.545-.366-.332zm0 4.449c.874 0 1.594.72 1.594 1.594 0 .873-.72 1.593-1.594 1.593-.874 0-1.594-.72-1.594-1.593 0-.874.72-1.594 1.594-1.594zm0 1.062c-.3 0-.531.232-.531.532 0 .3.231.53.531.53.3 0 .531-.23.531-.53 0-.3-.231-.532-.53-.532zm-1.594 5.313v6.375h3.188v-6.375h-3.188z" color="#000" font-family="Sans" font-weight="400" overflow="visible" class="colorffffff svgShape"></path></g></svg>